<?xml version="1.0" ?><svg id="social_x5F_linked_x5F_in" style="enable-background:new 0 0 30 32;" version="1.1" viewBox="0 0 30 32" xml:space="preserve" xmlns="http://www.w3.org/2000/svg" xmlns:xlink="http://www.w3.org/1999/xlink"><g><g><g><path d="M4,8C1.794,8,0,6.206,0,4s1.794-4,4-4s4,1.794,4,4S6.206,8,4,8z M4,2C2.897,2,2,2.897,2,4     s0.897,2,2,2s2-0.897,2-2S5.103,2,4,2z" style="fill:#FD5C3F;"/></g><g><path d="M8,32H0V10h8V32z M2,30h4V12H2V30z" style="fill:#FD5C3F;"/></g><g><path d="M16.999,15c-0.15,0-0.303-0.034-0.446-0.105c-0.494-0.247-0.694-0.848-0.447-1.342     C17.201,11.361,19.46,10,22,10c0.552,0,1,0.447,1,1s-0.448,1-1,1c-1.778,0-3.351,0.938-4.105,2.447     C17.719,14.798,17.366,15,16.999,15z" style="fill:#FD5C3F;"/></g><g><path d="M30,32h-8V20c0-0.553,0.448-1,1-1s1,0.447,1,1v10h4V19c0-5.1-3.68-7-6-7c-0.552,0-1-0.447-1-1     s0.448-1,1-1c3.322,0,8,2.792,8,9V32z" style="fill:#FD5C3F;"/></g><g><path d="M18,32h-8V10h8v4c0,0.553-0.448,1-1,1s-1-0.447-1-1v-2h-4v18h4V20c0-0.553,0.448-1,1-1     s1,0.447,1,1V32z" style="fill:#FD5C3F;"/></g></g><g><path d="M23,21c-0.552,0-1-0.447-1-1c0-1.103-0.897-2-2-2s-2,0.897-2,2c0,0.553-0.448,1-1,1s-1-0.447-1-1    c0-2.206,1.794-4,4-4s4,1.794,4,4C24,20.553,23.552,21,23,21z" style="fill:#FD5C3F;"/></g></g></svg>