<?xml version="1.0" ?><!DOCTYPE svg  PUBLIC '-//W3C//DTD SVG 1.1//EN'  'http://www.w3.org/Graphics/SVG/1.1/DTD/svg11.dtd'><svg height="100%" style="fill-rule:evenodd;clip-rule:evenodd;stroke-linejoin:round;stroke-miterlimit:2;" version="1.1" viewBox="0 0 512 512" width="100%" xml:space="preserve" xmlns="http://www.w3.org/2000/svg" xmlns:serif="http://www.serif.com/" xmlns:xlink="http://www.w3.org/1999/xlink"><g id="Monogram"><rect height="512" id="Rectangle-path" style="fill:#12100e;" width="512" x="0" y="0"/><path d="M122.182,171.234c0.428,-4.222 -1.182,-8.397 -4.335,-11.238l-32.117,-38.689l0,-5.779l99.719,0l77.078,169.041l67.765,-169.041l95.062,0l0,5.779l-27.459,26.327c-2.369,1.804 -3.542,4.771 -3.051,7.707l0,193.441c-0.491,2.936 0.682,5.903 3.051,7.706l26.815,26.328l0,5.779l-134.884,0l0,-5.779l27.779,-26.971c2.731,-2.728 2.731,-3.531 2.731,-7.704l0,-156.359l-77.238,196.169l-10.437,0l-89.926,-196.169l0,131.476c-0.748,5.527 1.087,11.094 4.978,15.09l36.132,43.824l0,5.779l-102.45,0l0,-5.779l36.131,-43.824c3.863,-4.004 5.59,-9.607 4.656,-15.09l0,-152.024Z" id="Shape" style="fill:#fff;fill-rule:nonzero;"/></g></svg>